<?xml version="1.0" encoding="UTF-8" standalone="no"?>
<!-- Created with Inkscape (http://www.inkscape.org/) -->

<svg
   xmlns:dc="http://purl.org/dc/elements/1.1/"
   xmlns:cc="http://creativecommons.org/ns#"
   xmlns:rdf="http://www.w3.org/1999/02/22-rdf-syntax-ns#"
   xmlns:svg="http://www.w3.org/2000/svg"
   xmlns="http://www.w3.org/2000/svg"
   xmlns:sodipodi="http://sodipodi.sourceforge.net/DTD/sodipodi-0.dtd"
   xmlns:inkscape="http://www.inkscape.org/namespaces/inkscape"
   width="744.09448819"
   height="1052.3622047"
   id="svg2"
   version="1.1"
   inkscape:version="0.47 r22583"
   sodipodi:docname="refFrames.svg">
  <defs
     id="defs4">
    <inkscape:perspective
       id="perspective2844"
       inkscape:persp3d-origin="372.04724 : 958.02563 : 1"
       inkscape:vp_z="744.09448 : 901.86191 : 1"
       inkscape:vp_y="0 : -320.2151 : 0"
       inkscape:vp_x="0 : 901.86191 : 1"
       sodipodi:type="inkscape:persp3d" />
    <inkscape:perspective
       sodipodi:type="inkscape:persp3d"
       inkscape:vp_x="-155.66581 : 286.97595 : 1"
       inkscape:vp_y="-666.38273 : 1358.7419 : 0"
       inkscape:vp_z="719.13577 : 716.01451 : 1"
       inkscape:persp3d-origin="398.61431 : 263.18046 : 1"
       id="perspective10" />
  </defs>
  <sodipodi:namedview
     id="base"
     pagecolor="#ffffff"
     bordercolor="#666666"
     borderopacity="1.0"
     inkscape:pageopacity="0.0"
     inkscape:pageshadow="2"
     inkscape:zoom="1.979899"
     inkscape:cx="343.70298"
     inkscape:cy="512.70613"
     inkscape:document-units="px"
     inkscape:current-layer="layer1"
     showgrid="false"
     inkscape:window-width="1680"
     inkscape:window-height="974"
     inkscape:window-x="0"
     inkscape:window-y="0"
     inkscape:window-maximized="1" />
  <metadata
     id="metadata7">
    <rdf:RDF>
      <cc:Work
         rdf:about="">
        <dc:format>image/svg+xml</dc:format>
        <dc:type
           rdf:resource="http://purl.org/dc/dcmitype/StillImage" />
        <dc:title></dc:title>
      </cc:Work>
    </rdf:RDF>
  </metadata>
  <g
     inkscape:label="Layer 1"
     inkscape:groupmode="layer"
     id="layer1">
    <g
       sodipodi:type="inkscape:box3d"
       style="fill:none;stroke:none"
       id="g2816"
       inkscape:perspectiveID="#perspective2844"
       inkscape:corner0="1.1346973 : 0.67748438 : 0 : 1"
       inkscape:corner7="0.57838222 : 0.51594878 : 0.25 : 1">
      <path
         sodipodi:type="inkscape:box3dside"
         id="path2822"
         style="fill:#8686bf;fill-rule:evenodd;stroke:none"
         inkscape:box3dsidetype="3"
         d="m 174.28571,225.81634 61.42858,26.54583 0,-32.77162 -61.42858,-18.00534 z" />
      <path
         sodipodi:type="inkscape:box3dside"
         id="path2824"
         style="fill:#d7d7ff;fill-rule:evenodd;stroke:none"
         inkscape:box3dsidetype="14"
         d="m 235.71429,252.36217 0,-32.77162 69.51229,-9.44691 0,28.29066 z" />
      <path
         sodipodi:type="inkscape:box3dside"
         id="path2826"
         style="fill:#afafde;fill-rule:evenodd;stroke:none"
         inkscape:box3dsidetype="13"
         d="m 174.28571,201.58521 61.42858,18.00534 69.51229,-9.44691 -71.2049,-13.91393 z" />
      <path
         sodipodi:type="inkscape:box3dside"
         id="path2820"
         style="fill:#4d4d9f;fill-rule:evenodd;stroke:none"
         inkscape:box3dsidetype="5"
         d="m 174.28571,225.81634 61.42858,26.54583 69.51229,-13.92787 -71.2049,-20.51373 z" />
      <path
         sodipodi:type="inkscape:box3dside"
         id="path2818"
         style="fill:#353564;fill-rule:evenodd;stroke:none"
         inkscape:box3dsidetype="6"
         d="m 174.28571,225.81634 0,-24.23113 59.73597,-5.3555 0,21.69086 z" />
      <path
         sodipodi:type="inkscape:box3dside"
         id="path2828"
         style="fill:#e9e9ff;fill-rule:evenodd;stroke:none"
         inkscape:box3dsidetype="11"
         d="m 234.02168,217.92057 71.2049,20.51373 0,-28.29066 -71.2049,-13.91393 z" />
    </g>
    <g
       sodipodi:type="inkscape:box3d"
       style="fill:none;stroke:none"
       id="g2830"
       inkscape:perspectiveID="#perspective10"
       inkscape:corner0="-0.14612109 : 0.14693909 : 0 : 1"
       inkscape:corner7="-0.26222927 : 0.088624734 : 0.25 : 1"
       inkscape:export-filename="/home/topher/docs/OCEANS2012/2012_oceans_rov_so3_id/images/text2994.png"
       inkscape:export-xdpi="90"
       inkscape:export-ydpi="90">
      <path
         sodipodi:type="inkscape:box3dside"
         id="path2840"
         style="fill:#afafde;fill-rule:evenodd;stroke:none"
         inkscape:box3dsidetype="13"
         d="m 424.30182,652.22891 91.27359,-17.80836 51.52015,-75.44081 -76.02148,21.71025 z" />
      <path
         sodipodi:type="inkscape:box3dside"
         id="path2832"
         style="fill:#353564;fill-rule:evenodd;stroke:none"
         inkscape:box3dsidetype="6"
         d="m 378.79223,559.43571 45.50959,92.7932 66.77226,-71.53892 -35.20285,-71.77795 z" />
      <path
         sodipodi:type="inkscape:box3dside"
         id="path2842"
         style="fill:#e9e9ff;fill-rule:evenodd;stroke:none"
         inkscape:box3dsidetype="11"
         d="m 455.87123,508.91204 71.88354,-30.14743 39.34079,80.21513 -76.02148,21.71025 z" />
      <path
         sodipodi:type="inkscape:box3dside"
         id="path2834"
         style="fill:#4d4d9f;fill-rule:evenodd;stroke:none"
         inkscape:box3dsidetype="5"
         d="m 378.79223,559.43571 84.11143,-32.41189 64.85111,-48.25921 -71.88354,30.14743 z" />
      <path
         sodipodi:type="inkscape:box3dside"
         id="path2838"
         style="fill:#d7d7ff;fill-rule:evenodd;stroke:none"
         inkscape:box3dsidetype="14"
         d="m 462.90366,527.02382 52.67175,107.39673 51.52015,-75.44081 -39.34079,-80.21513 z" />
      <path
         sodipodi:type="inkscape:box3dside"
         id="path2836"
         style="fill:#8686bf;fill-rule:evenodd;stroke:none"
         inkscape:box3dsidetype="3"
         d="m 378.79223,559.43571 84.11143,-32.41189 52.67175,107.39673 -91.27359,17.80836 z" />
    </g>
    <path
       style="fill:none;stroke:#000000;stroke-width:1px;stroke-linecap:butt;stroke-linejoin:miter;stroke-opacity:1"
       d="m 287.14286,598.07647 0,-145.71429 128.57143,-44.28571"
       id="path2848"
       inkscape:export-filename="/home/topher/docs/OCEANS2012/2012_oceans_rov_so3_id/images/text2994.png"
       inkscape:export-xdpi="90"
       inkscape:export-ydpi="90" />
    <path
       style="fill:none;stroke:#000000;stroke-width:0.95623124px;stroke-linecap:butt;stroke-linejoin:miter;stroke-opacity:1"
       d="M 285.73618,452.38407 149.97812,388.05459"
       id="path2854"
       inkscape:export-filename="/home/topher/docs/OCEANS2012/2012_oceans_rov_so3_id/images/text2994.png"
       inkscape:export-xdpi="90"
       inkscape:export-ydpi="90" />
    <path
       style="fill:none;stroke:#000000;stroke-width:1px;stroke-linecap:butt;stroke-linejoin:miter;stroke-opacity:1"
       d="M 372.85714,663.79075 481.42857,572.36218 350,616.6479"
       id="path2860"
       inkscape:export-filename="/home/topher/docs/OCEANS2012/2012_oceans_rov_so3_id/images/text2994.png"
       inkscape:export-xdpi="90"
       inkscape:export-ydpi="90" />
    <path
       style="fill:none;stroke:#000000;stroke-width:0.90707892px;stroke-linecap:butt;stroke-linejoin:miter;stroke-opacity:1"
       d="m 481.38211,572.31572 58.66435,130.09293"
       id="path2862"
       inkscape:export-filename="/home/topher/docs/OCEANS2012/2012_oceans_rov_so3_id/images/text2994.png"
       inkscape:export-xdpi="90"
       inkscape:export-ydpi="90" />
    <path
       style="fill:#000000;fill-opacity:1;fill-rule:nonzero;stroke:none"
       id="path2876"
       d="m 405.61212,665.48423 c 1.88448,-1.22286 3.62602,-2.59425 5.13784,-4.25699 1.34061,-1.42622 2.31744,-3.03818 2.82914,-4.92261 0.31914,-1.6834 0.41229,-3.42431 0.2333,-5.12816 -0.28545,-1.94731 -0.99227,-3.79312 -1.84216,-5.5572 -0.67174,-1.749 -1.55085,-3.393 -2.57751,-4.95604 -0.96895,-1.42906 -2.01056,-2.82263 -3.11687,-4.14966 -1.24652,-1.43233 -2.60772,-2.75072 -4.03641,-3.99842 -1.4878,-1.36952 -3.13338,-2.54372 -4.79452,-3.68981 -1.69316,-1.08433 -3.30655,-2.28484 -4.96884,-3.41384 -1.18043,-0.73662 -2.43534,-1.40408 -3.74322,-1.88848 -0.90686,-0.28146 -1.86168,-0.29007 -2.80217,-0.30445 -1.03901,-0.0381 -2.08214,0.15503 -3.08069,0.43573 -1.28548,0.534 -2.58046,1.04981 -3.83863,1.64587 -1.35405,0.50492 -2.67526,1.08944 -4.00442,1.65614 -2.41751,0.91314 -6.09861,3.26702 4.70796,-2.84274 1.27448,-0.72056 -1.14992,0.77151 -1.4105,0.95922 -0.83579,0.60518 -1.36787,1.48246 -1.94415,2.31466 -0.44262,0.68261 -0.78109,1.42302 -1.17738,2.13083 -0.42644,0.73031 -0.5118,1.56452 -0.57408,2.3902 -0.0519,0.99084 -0.0446,1.98356 -0.0433,2.9754 0.12694,0.98795 0.3036,1.96687 0.40281,2.95898 0.0455,0.91262 0.31642,1.78989 0.45614,2.69007 0.25948,0.77602 0.37886,1.58786 0.59002,2.3749 0.24567,0.86148 0.57199,1.69379 0.7905,2.56313 0.14817,1.0063 0.38709,1.99505 0.56582,2.99596 0.0526,0.60393 0.24146,1.18117 0.39481,1.76402 0,0 -6.60427,3.57765 -6.60427,3.57765 l 0,0 c -0.15247,-0.6047 -0.36941,-1.19865 -0.41417,-1.82453 -0.16049,-0.98883 -0.43084,-1.95359 -0.54611,-2.94945 -0.19782,-0.86477 -0.53905,-1.67696 -0.78393,-2.52782 -0.2484,-0.81109 -0.32063,-1.67145 -0.63306,-2.46885 -0.12361,-0.91804 -0.4098,-1.80514 -0.46486,-2.72966 -0.0858,-1.01521 -0.24344,-2.01768 -0.43593,-3.01793 -0.003,-1.00473 -0.0102,-2.00978 0.0186,-3.01423 0.0392,-0.90355 0.081,-1.82597 0.42268,-2.67557 0.37457,-0.74177 0.78821,-1.45546 1.16289,-2.19701 0.54539,-0.89035 1.12157,-1.79495 1.86178,-2.53635 0.75811,-0.67963 0.0437,-0.0753 0.89709,-0.68978 2.67807,-1.92838 5.5427,-3.6571 8.62445,-4.85231 1.32605,-0.56102 2.65582,-1.11249 3.98548,-1.66481 1.29425,-0.56345 2.58222,-1.16942 3.94664,-1.54459 1.06258,-0.20379 2.12387,-0.38667 3.2112,-0.2884 1.00387,0.0463 2.01276,0.13192 2.94992,0.52748 1.3117,0.58293 2.59506,1.25247 3.78458,2.05713 1.63749,1.16168 3.27504,2.32232 4.95553,3.42203 1.67779,1.17047 3.33604,2.37128 4.8432,3.76051 1.44654,1.28458 2.84667,2.62482 4.1167,4.08669 1.11317,1.35525 2.17446,2.7648 3.14478,4.22506 1.05843,1.58571 1.93574,3.26879 2.61933,5.05134 0.8705,1.83681 1.64448,3.73742 1.96652,5.75644 0.27359,1.7725 0.1323,3.59513 -0.0935,5.36917 -0.4529,1.9961 -1.32023,3.752 -2.73039,5.26362 -1.43556,1.71916 -3.09052,3.19219 -5.00289,4.37122 0,0 -6.95582,2.76624 -6.95582,2.76624 z"
       inkscape:export-filename="/home/topher/docs/OCEANS2012/2012_oceans_rov_so3_id/images/text2994.png"
       inkscape:export-xdpi="90"
       inkscape:export-ydpi="90" />
    <path
       style="fill:#000000;fill-opacity:1;fill-rule:nonzero;stroke:none"
       id="path2878"
       d="m 374.21732,655.17017 c -1.16192,-0.89814 -2.32819,-1.77949 -3.50321,-2.63408 -0.96299,-0.72395 -1.98638,-1.20681 -2.96011,-1.88528 -1.13843,-0.85984 -2.22467,-1.87241 -3.40781,-2.57415 -1.03406,-0.71647 -2.11566,-1.18339 -3.23343,-1.40077 -0.83265,-0.37445 -1.68572,-0.53554 -2.54629,-0.62613 -1.07653,-0.17061 -2.17086,-0.31698 -3.23466,-0.64673 -0.83312,-0.35211 -1.71565,-0.30174 -2.51193,-0.84617 0,0 4.69823,-5.00887 4.69823,-5.00887 l 0,0 c 0.78193,0.38879 1.6238,0.41156 2.41611,0.74381 1.06656,0.25419 2.14088,0.45992 3.21738,0.56719 0.86702,0.13196 1.71743,0.37859 2.56741,0.67734 1.13149,0.31954 2.21935,0.88269 3.27699,1.59601 1.17385,0.76417 2.27357,1.76388 3.4355,2.57007 0.9894,0.62834 1.99475,1.19144 2.95752,1.92369 1.18325,0.86591 2.34567,1.80255 3.5402,2.62986 0,0 -4.7119,4.91421 -4.7119,4.91421 z"
       inkscape:export-filename="/home/topher/docs/OCEANS2012/2012_oceans_rov_so3_id/images/text2994.png"
       inkscape:export-xdpi="90"
       inkscape:export-ydpi="90" />
    <path
       style="fill:#000000;fill-opacity:1;fill-rule:nonzero;stroke:none"
       id="path2880"
       d="m 373.52506,653.47889 c 0.3366,-1.59191 0.45405,-3.246 0.64928,-4.87667 0.14293,-1.01914 0.30667,-2.02409 0.53766,-3.01031 0.15875,-0.82197 0.34833,-1.63911 0.60884,-2.40906 0.20262,-0.76911 0.50328,-1.45313 0.83302,-2.12276 0.47504,-0.81695 0.96474,-1.61394 1.47511,-2.38792 0.55286,-0.76736 1.11841,-1.51887 1.69814,-2.24595 0.41595,-0.53806 0.80121,-1.12122 1.21797,-1.65733 0.18398,-0.28758 0.38678,-0.54287 0.57358,-0.82679 0,0 5.30104,-3.05489 5.30104,-3.05489 l 0,0 c -0.22059,0.24058 -0.36088,0.54437 -0.5914,0.76695 -0.35199,0.62721 -0.80715,1.13831 -1.21682,1.68786 -0.51712,0.82174 -1.15927,1.48152 -1.72488,2.23696 -0.50781,0.75271 -1.02476,1.50197 -1.45508,2.34783 -0.40703,0.5028 -0.7159,1.20526 -0.89908,1.91825 -0.25055,0.74703 -0.5244,1.49158 -0.64774,2.30585 -0.20058,0.9876 -0.46731,1.93429 -0.58453,2.95721 -0.28075,1.60794 -0.32169,3.29019 -0.62392,4.89689 0,0 -5.15119,3.47388 -5.15119,3.47388 z"
       inkscape:export-filename="/home/topher/docs/OCEANS2012/2012_oceans_rov_so3_id/images/text2994.png"
       inkscape:export-xdpi="90"
       inkscape:export-ydpi="90" />
    <path
       style="fill:#000000;fill-opacity:1;fill-rule:nonzero;stroke:none"
       id="path2902"
       d="m 350.96977,634.05112 c -1.47239,-0.47641 -2.81058,-1.26226 -4.13886,-2.03808 -0.92305,-0.4004 -1.66565,-1.09015 -2.46093,-1.68563 -0.78953,-0.55667 -1.39844,-1.31085 -2.09708,-1.96686 -0.60839,-0.63057 -1.04458,-1.39635 -1.62556,-2.0483 -0.61146,-0.69522 -1.01624,-1.53136 -1.53113,-2.29193 -0.65245,-0.81323 -1.22246,-1.68786 -1.73067,-2.5972 -0.58396,-0.9446 -0.95413,-1.99568 -1.40761,-3.00418 -0.46867,-1.10031 -0.82514,-2.24374 -1.23581,-3.36657 -0.4013,-1.06541 -0.5641,-2.18699 -0.65053,-3.31531 -0.0586,-1.01955 -0.052,-2.04133 -0.0504,-3.06213 -0.0391,-0.93706 0.0107,-1.85052 0.37648,-2.72125 0.30581,-0.81946 0.7617,-1.54101 1.34883,-2.18478 0.66223,-0.65297 1.26475,-1.36054 1.89514,-2.04326 0.63515,-0.7155 1.40356,-1.2734 2.15276,-1.85768 0.65725,-0.54451 1.36408,-1.02316 2.04479,-1.5366 14.20404,-8.22916 4.23377,-2.44376 0.69971,-0.42978 -0.12242,0.0698 0.23716,-0.15239 0.35206,-0.23395 0.38585,-0.27388 0.76548,-0.55383 1.15623,-0.82148 2.88873,-1.78005 -2.63391,1.61696 7.31967,-4.2346 1.98734,-1.16833 -3.99382,2.30385 -5.99716,3.44452 -0.13739,0.0782 0.2617,-0.17803 0.39876,-0.25686 2.27614,-1.30915 4.54557,-2.63047 6.8403,-3.90675 2.03794,-1.13345 -4.04656,2.31883 -6.06985,3.47824 2.9551,-1.90027 5.61266,-3.78696 8.92745,-4.58816 0.99251,-0.20332 2.00829,-0.22673 3.01755,-0.24543 0.98574,-0.11185 1.90742,0.086 2.86176,0.28378 0.87916,0.3181 1.77438,0.54572 2.55688,1.07304 0.64961,0.48144 1.33165,0.94137 1.95918,1.45491 0.72832,0.58169 1.10686,1.451 1.66574,2.17384 0.47251,0.72348 1.00751,1.40705 1.41766,2.16848 0.3508,0.65285 0.83899,1.19912 1.2963,1.77394 0.60667,0.76477 1.25,1.49793 1.85288,2.26509 0.49748,0.70398 0.92174,1.447 1.34046,2.19932 0.42772,0.83446 0.51958,1.76535 0.58204,2.6856 0.0415,0.83599 0.0388,1.67329 0.0388,2.51005 0,0 -6.68331,3.40465 -6.68331,3.40465 l 0,0 c 0.001,-0.82286 0.005,-1.64601 -0.0224,-2.46854 -0.0394,-0.80921 -0.0743,-1.64093 -0.43292,-2.38385 -0.39654,-0.71828 -0.79289,-1.43099 -1.2658,-2.10312 -0.60344,-0.76484 -1.24058,-1.5001 -1.86487,-2.24778 -0.49506,-0.60491 -0.98303,-1.21099 -1.36008,-1.90005 -0.38687,-0.73026 -0.90992,-1.37862 -1.36215,-2.06883 -0.49967,-0.68571 -0.86596,-1.48752 -1.56035,-2.0062 -0.63017,-0.46943 -1.25369,-0.95381 -1.91399,-1.37851 -0.7572,-0.40099 -1.5818,-0.64724 -2.40912,-0.86007 -0.91202,-0.1837 -1.82176,-0.2097 -2.75138,-0.14848 -0.97968,0.042 -1.96625,0.10556 -2.90973,0.39537 -2.79404,0.91785 -7.13233,3.44646 4.02628,-2.69778 -22.64408,13.06377 4.17804,-2.4645 -1.18727,0.66789 -2.27631,1.32897 -4.57483,2.62061 -6.82904,3.98674 -1.81451,1.09967 8.48775,-5.03296 5.51483,-3.17836 -0.4037,0.2206 -0.80822,0.4679 -1.17643,0.74505 -0.11589,0.0872 -0.20186,0.21343 -0.32643,0.28774 -0.23503,0.1402 -16.66398,9.70968 -0.71104,0.41044 -0.71679,0.4542 -1.42164,0.95865 -2.05128,1.52895 -0.78457,0.50723 -1.56283,1.07465 -2.20166,1.76018 -0.71093,0.5967 -1.24033,1.37387 -1.89148,2.02804 -0.61115,0.54278 -1.19501,1.13565 -1.44766,1.93396 -0.4613,0.91204 -0.60805,1.36899 -0.53336,2.43866 -0.003,1.00587 -0.0117,2.01224 0.0256,3.01763 0.0578,1.0639 0.17141,2.1268 0.53714,3.13604 0.39801,1.10612 0.77301,2.2215 1.21539,3.31046 0.45316,0.98637 0.80225,2.02436 1.37922,2.94958 0.49752,0.89387 1.07444,1.739 1.70944,2.5412 0.48787,0.74319 0.90074,1.53775 1.49329,2.20893 0.54203,0.6544 0.99187,1.38115 1.58605,1.99235 0.65757,0.66029 1.28011,1.3615 2.05282,1.89397 0.75434,0.60057 1.51695,1.19595 2.38632,1.62535 1.28895,0.78087 2.62342,1.49896 4.08035,1.91707 0,0 -6.2209,4.18728 -6.2209,4.18728 z"
       inkscape:export-filename="/home/topher/docs/OCEANS2012/2012_oceans_rov_so3_id/images/text2994.png"
       inkscape:export-xdpi="90"
       inkscape:export-ydpi="90" />
    <path
       style="fill:#000000;fill-opacity:1;fill-rule:nonzero;stroke:none"
       id="path2904"
       d="m 366.14747,611.71838 c -1.19621,-0.78685 -2.51146,-1.32826 -3.78515,-1.9619 -0.84894,-0.3288 -1.69507,-0.6864 -2.56915,-0.94663 -0.8978,-0.15008 -1.78591,-0.23114 -2.67695,-0.42312 -0.95849,-0.26506 -1.78401,-0.81633 -2.73558,-1.09566 -0.58921,-0.1458 -1.19598,-0.17725 -1.79939,-0.20806 0,0 6.10398,-4.36454 6.10398,-4.36454 l 0,0 c 0.64657,0.0645 1.29442,0.14148 1.9108,0.36061 0.89301,0.34136 1.7238,0.84422 2.67583,1.01987 0.91276,0.17134 1.85535,0.18397 2.73986,0.4922 0.87668,0.32272 1.76489,0.62599 2.60147,1.04423 1.29965,0.62261 2.56247,1.29948 3.82518,1.99365 0,0 -6.2909,4.08935 -6.2909,4.08935 z"
       inkscape:export-filename="/home/topher/docs/OCEANS2012/2012_oceans_rov_so3_id/images/text2994.png"
       inkscape:export-xdpi="90"
       inkscape:export-ydpi="90" />
    <path
       style="fill:#000000;fill-opacity:1;fill-rule:nonzero;stroke:none"
       id="path2906"
       d="m 368.90228,609.05259 c 0.12703,-1.54172 0.30457,-3.07809 0.41085,-4.6217 0.0574,-1.09289 0.39809,-2.11569 0.7921,-3.12459 0.33486,-0.68379 0.74462,-1.3326 1.16667,-1.96608 0.38896,-0.61078 0.85453,-1.17736 1.36944,-1.6864 0.46815,-0.51175 0.83442,-1.09138 1.34441,-1.56408 0,0 6.94702,-2.86903 6.94702,-2.86903 l 0,0 c -0.9394,0.97052 0.37946,-0.3543 -0.60755,0.51737 -0.34656,0.30607 -0.23199,0.30093 -0.49743,0.68428 -0.0761,0.10982 -0.16958,0.20646 -0.25436,0.30969 -0.43346,0.55851 -0.99048,1.00536 -1.42235,1.56774 -0.37259,0.65739 -0.81721,1.26065 -1.20314,1.90491 -0.53046,0.86067 -0.78361,1.89204 -0.95157,2.87958 -0.1086,1.52488 -0.28431,3.04296 -0.41623,4.56577 0,0 -6.67786,3.40254 -6.67786,3.40254 z"
       inkscape:export-filename="/home/topher/docs/OCEANS2012/2012_oceans_rov_so3_id/images/text2994.png"
       inkscape:export-xdpi="90"
       inkscape:export-ydpi="90" />
    <path
       style="fill:#000000;fill-opacity:1;fill-rule:nonzero;stroke:none"
       id="path2928"
       d="m 541.96197,674.28911 c 1.74149,-0.17177 3.48703,-0.28239 5.23514,-0.35567 1.26782,-0.10689 2.48567,0.1542 3.61179,0.72622 1.06639,0.6544 1.95398,1.55019 2.84399,2.41914 0.90645,0.77833 1.4836,1.83373 2.22707,2.7493 0.42406,0.66405 0.86302,1.31264 1.31794,1.95583 0.49768,0.78723 0.60552,1.70562 0.67907,2.61278 0.0568,1.00391 0.0483,2.01004 0.0464,3.01513 -3.9e-4,1.06117 -0.009,2.1223 -0.0126,3.18346 -0.0959,1.14562 -0.24866,2.2913 -0.43831,3.42565 -0.20843,1.06755 -0.42084,2.11745 -0.82455,3.12982 -0.4381,0.9489 -0.8473,1.90935 -1.32737,2.8381 -0.5964,1.06017 -1.42105,1.96612 -2.27373,2.82428 -0.73259,0.70271 -1.47843,1.38966 -2.25875,2.03879 -0.80957,0.7059 -1.77628,1.18503 -2.61331,1.852 -0.93881,0.80624 -1.97958,1.48564 -2.99316,2.19344 -2.50055,1.74504 -5.26197,3.17825 -7.88631,4.65581 -0.41438,0.23331 -1.2148,0.49611 -1.68062,0.71058 -1.12982,0.58652 -2.3553,0.90289 -3.54152,1.33628 -0.9843,0.21623 -1.91568,0.57803 -2.88575,0.83704 -0.91685,0.16324 -1.87412,0.31382 -2.79546,0.13517 -0.98949,-0.20686 -1.81746,-0.84704 -2.69825,-1.31489 -1.01632,-0.69827 -1.77118,-1.6429 -2.4638,-2.64512 -0.66312,-1.11713 -1.48347,-2.13037 -2.22338,-3.19595 -0.6517,-0.80254 -1.24332,-1.6514 -1.8286,-2.50237 -0.60764,-0.67306 -1.10156,-1.43553 -1.54284,-2.22486 -0.60042,-0.92031 -0.93122,-1.94337 -1.1253,-3.01516 -0.14986,-1.02227 -0.15288,-2.05776 -0.15844,-3.08861 -8.3e-4,-0.84319 0.003,-1.68637 0.006,-2.52956 0,0 6.684,-3.40316 6.684,-3.40316 l 0,0 c -0.002,0.84189 -0.006,1.68378 -0.008,2.52567 4e-4,0.99444 -0.007,1.99217 0.10248,2.982 0.14687,0.99743 0.42786,1.94172 1.00133,2.78593 0.43306,0.77041 0.94424,1.48788 1.51395,2.16378 0.58102,0.85186 1.16856,1.69942 1.80329,2.51288 0.73628,1.06657 1.55466,2.07949 2.22306,3.19158 0.63798,0.89902 1.3278,1.77454 2.29281,2.3448 0.80549,0.44938 1.59817,0.99546 2.54458,1.06135 0.88496,-0.002 1.77209,-0.1042 2.61866,-0.37157 0.94388,-0.3101 1.91301,-0.52016 2.85178,-0.84748 1.19705,-0.37701 2.34626,-0.86263 3.4864,-1.38693 0.38067,-0.17054 0.76708,-0.32838 1.14458,-0.50581 0.17179,-0.0807 0.6713,-0.35408 0.50788,-0.25753 -10.37922,6.13202 -7.12124,4.17244 -4.89823,2.81236 0.95839,-0.76924 2.03041,-1.38891 3.00635,-2.13676 0.78414,-0.7549 1.68676,-1.28179 2.602,-1.86298 0.77457,-0.66341 1.57623,-1.28669 2.28881,-2.01707 0.89627,-0.749 1.66955,-1.64435 2.34695,-2.59497 0.53296,-0.88823 0.90269,-1.83981 1.37374,-2.75965 0.40885,-0.98078 0.73133,-1.94348 0.88338,-3.00351 0.26415,-1.07775 0.2992,-2.20447 0.51161,-3.29459 -0.002,-1.05958 -0.006,-2.11915 0.001,-3.17874 0.003,-0.98812 0.0117,-1.97678 -0.0262,-2.96439 -0.045,-0.76873 -0.0786,-1.57042 -0.49357,-2.24449 -0.45227,-0.63121 -0.86792,-1.2812 -1.28765,-1.93319 -0.69287,-0.91155 -1.26264,-1.92641 -2.14631,-2.67843 -0.84109,-0.8067 -1.68179,-1.65458 -2.73011,-2.19018 -1.0819,-0.43545 -2.20524,-0.5684 -3.37084,-0.46373 -1.75001,0.0765 -3.4989,0.19521 -5.23686,0.42 0,0 6.01384,-4.47182 6.01384,-4.47182 z"
       inkscape:export-filename="/home/topher/docs/OCEANS2012/2012_oceans_rov_so3_id/images/text2994.png"
       inkscape:export-xdpi="90"
       inkscape:export-ydpi="90" />
    <path
       style="fill:#000000;fill-opacity:1;fill-rule:nonzero;stroke:none"
       id="path2940"
       d="m 520.78492,691.54357 c 1.15527,0.94925 2.26881,1.96031 3.50501,2.80579 0.72096,0.62392 1.52895,1.12204 2.29037,1.68441 0.64432,0.35467 1.25606,0.73815 1.97748,0.91595 0.76409,0.34103 1.54293,0.66579 2.34893,0.89673 0.78558,0.30801 1.5194,0.73315 2.31206,1.01885 0.63104,0.19362 1.20999,0.47668 1.86246,0.61577 0,0 -6.19004,4.25981 -6.19004,4.25981 l 0,0 c -0.65211,-0.19942 -1.27227,-0.47755 -1.91855,-0.69473 -0.7526,-0.33541 -1.49333,-0.69851 -2.27075,-0.97614 -0.79406,-0.2741 -1.57293,-0.589 -2.35681,-0.8898 -0.7451,-0.27968 -1.43926,-0.68207 -2.10761,-1.11147 -0.78247,-0.53098 -1.5123,-1.12446 -2.25772,-1.70649 -1.20624,-0.89231 -2.30861,-1.91293 -3.52264,-2.79576 0,0 6.32781,-4.02292 6.32781,-4.02292 z"
       inkscape:export-filename="/home/topher/docs/OCEANS2012/2012_oceans_rov_so3_id/images/text2994.png"
       inkscape:export-xdpi="90"
       inkscape:export-ydpi="90" />
    <path
       style="fill:#000000;fill-opacity:1;fill-rule:nonzero;stroke:none"
       id="path2942"
       d="m 520.38303,693.66365 c -0.87161,1.26919 -1.47728,2.67987 -2.13088,4.06523 -0.37772,0.8676 -0.79295,1.70893 -1.09232,2.60746 -0.34764,1.01437 -0.91315,1.87829 -1.6365,2.65897 -2.38327,2.02358 -0.76527,0.69205 -7.27527,4.28631 -0.21322,0.11772 -0.78761,0.15336 -1.01343,0.21247 -0.28694,0.0751 -0.55773,0.20262 -0.84072,0.29148 -0.89577,0.14576 -1.62458,0.6901 -2.45952,0.99673 -0.70203,0.28806 -1.30589,0.73035 -2.01346,1.00446 0,0 5.88157,-4.6716 5.88157,-4.6716 l 0,0 c 0.66382,-0.35474 1.32614,-0.70891 2.0273,-0.98764 0.80727,-0.38984 1.62917,-0.72489 2.50352,-0.93892 0.43884,-0.13709 0.89925,-0.22414 1.3285,-0.38964 0.1515,-0.0584 0.58237,-0.28595 0.44283,-0.20292 -4.63453,2.75773 -8.08886,4.66331 -5.51808,3.24166 0.79755,-0.62757 1.37341,-1.39121 1.77034,-2.32545 0.16451,-0.42536 0.25332,-0.86863 0.43117,-1.28855 0.46593,-1.10009 -0.0766,0.2796 0.44347,-0.84216 0.083,-0.17898 0.14119,-0.36844 0.21178,-0.55266 0.65309,-1.39066 1.26048,-2.80962 2.08652,-4.11035 0,0 6.85318,-3.05488 6.85318,-3.05488 z"
       inkscape:export-filename="/home/topher/docs/OCEANS2012/2012_oceans_rov_so3_id/images/text2994.png"
       inkscape:export-xdpi="90"
       inkscape:export-ydpi="90" />
    <path
       style="fill:none;stroke:#000000;stroke-width:1px;stroke-linecap:butt;stroke-linejoin:miter;stroke-opacity:1"
       d="m 381.83766,660.42299 -8.08122,3.53554 3.53554,-8.5863"
       id="path2946"
       inkscape:export-filename="/home/topher/docs/OCEANS2012/2012_oceans_rov_so3_id/images/text2994.png"
       inkscape:export-xdpi="90"
       inkscape:export-ydpi="90" />
    <path
       style="fill:none;stroke:#000000;stroke-width:1px;stroke-linecap:butt;stroke-linejoin:miter;stroke-opacity:1"
       d="m 359.10923,616.98644 -9.09137,-0.50508 7.07106,-4.54569"
       id="path2948"
       inkscape:export-filename="/home/topher/docs/OCEANS2012/2012_oceans_rov_so3_id/images/text2994.png"
       inkscape:export-xdpi="90"
       inkscape:export-ydpi="90" />
    <path
       style="fill:none;stroke:#000000;stroke-width:1px;stroke-linecap:butt;stroke-linejoin:miter;stroke-opacity:1"
       d="m 539.42146,694.26311 0.50508,8.08122 -6.06092,-6.06092"
       id="path2950"
       inkscape:export-filename="/home/topher/docs/OCEANS2012/2012_oceans_rov_so3_id/images/text2994.png"
       inkscape:export-xdpi="90"
       inkscape:export-ydpi="90" />
    <path
       style="fill:none;stroke:#000000;stroke-width:0.87326694px;stroke-linecap:butt;stroke-linejoin:miter;stroke-opacity:1"
       d="m 290.48223,592.42692 -3.59469,6.44014 -4.1082,-7.19781"
       id="path2954"
       inkscape:export-filename="/home/topher/docs/OCEANS2012/2012_oceans_rov_so3_id/images/text2994.png"
       inkscape:export-xdpi="90"
       inkscape:export-ydpi="90" />
    <path
       style="fill:none;stroke:#000000;stroke-width:0.7884779px;stroke-linecap:butt;stroke-linejoin:miter;stroke-opacity:1"
       d="m 157.68956,388.02407 -7.78767,-0.44802 2.12391,6.27244"
       id="path2958"
       inkscape:export-filename="/home/topher/docs/OCEANS2012/2012_oceans_rov_so3_id/images/text2994.png"
       inkscape:export-xdpi="90"
       inkscape:export-ydpi="90" />
    <path
       style="fill:none;stroke:#000000;stroke-width:0.76577508px;stroke-linecap:butt;stroke-linejoin:miter;stroke-opacity:1"
       d="m 412.34023,413.05273 3.95973,-5.28906 -8.31544,-1.51115"
       id="path2962"
       inkscape:export-filename="/home/topher/docs/OCEANS2012/2012_oceans_rov_so3_id/images/text2994.png"
       inkscape:export-xdpi="90"
       inkscape:export-ydpi="90" />
    <text
       xml:space="preserve"
       style="font-size:12px;font-style:normal;font-weight:normal;fill:#000000;fill-opacity:1;stroke:none;font-family:Bitstream Vera Sans"
       x="164.1498"
       y="389.19705"
       id="text2964"
       inkscape:export-filename="/home/topher/docs/OCEANS2012/2012_oceans_rov_so3_id/images/text2994.png"
       inkscape:export-xdpi="90"
       inkscape:export-ydpi="90"><tspan
         sodipodi:role="line"
         id="tspan2966"
         x="164.1498"
         y="389.19705">world x - north</tspan></text>
    <text
       xml:space="preserve"
       style="font-size:12px;font-style:normal;font-weight:normal;fill:#000000;fill-opacity:1;stroke:none;font-family:Bitstream Vera Sans"
       x="424.76917"
       y="409.40009"
       id="text2968"
       inkscape:export-filename="/home/topher/docs/OCEANS2012/2012_oceans_rov_so3_id/images/text2994.png"
       inkscape:export-xdpi="90"
       inkscape:export-ydpi="90"><tspan
         sodipodi:role="line"
         id="tspan2970"
         x="424.76917"
         y="409.40009">world y - east</tspan></text>
    <text
       xml:space="preserve"
       style="font-size:12px;font-style:normal;font-weight:normal;fill:#000000;fill-opacity:1;stroke:none;font-family:Bitstream Vera Sans"
       x="201.02036"
       y="587.69202"
       id="text2972"
       inkscape:export-filename="/home/topher/docs/OCEANS2012/2012_oceans_rov_so3_id/images/text2994.png"
       inkscape:export-xdpi="90"
       inkscape:export-ydpi="90"><tspan
         sodipodi:role="line"
         id="tspan2974"
         x="201.02036"
         y="587.69202">world z - down</tspan></text>
    <text
       xml:space="preserve"
       style="font-size:12px;font-style:normal;font-weight:normal;fill:#000000;fill-opacity:1;stroke:none;font-family:Bitstream Vera Sans"
       x="316.68283"
       y="559.91284"
       id="text2982"
       inkscape:export-filename="/home/topher/docs/OCEANS2012/2012_oceans_rov_so3_id/images/text2994.png"
       inkscape:export-xdpi="90"
       inkscape:export-ydpi="90"><tspan
         sodipodi:role="line"
         id="tspan2984"
         x="316.68283"
         y="559.91284">vehicle y</tspan><tspan
         sodipodi:role="line"
         x="316.68283"
         y="574.91284"
         id="tspan2986">starboard</tspan></text>
    <text
       xml:space="preserve"
       style="font-size:12px;font-style:normal;font-weight:normal;fill:#000000;fill-opacity:1;stroke:none;font-family:Bitstream Vera Sans"
       x="353.55338"
       y="680.62604"
       id="text2988"
       inkscape:export-filename="/home/topher/docs/OCEANS2012/2012_oceans_rov_so3_id/images/text2994.png"
       inkscape:export-xdpi="90"
       inkscape:export-ydpi="90"><tspan
         sodipodi:role="line"
         id="tspan2990"
         x="353.55338"
         y="680.62604">vehicle x</tspan><tspan
         sodipodi:role="line"
         x="353.55338"
         y="695.62604"
         id="tspan2992">bow</tspan></text>
    <text
       xml:space="preserve"
       style="font-size:12px;font-style:normal;font-weight:normal;fill:#000000;fill-opacity:1;stroke:none;font-family:Bitstream Vera Sans"
       x="555.0788"
       y="656.88745"
       id="text2994"
       inkscape:export-xdpi="90"
       inkscape:export-ydpi="90"><tspan
         sodipodi:role="line"
         id="tspan2996"
         x="555.0788"
         y="656.88745">vehicle z</tspan><tspan
         sodipodi:role="line"
         x="555.0788"
         y="671.88745"
         id="tspan2998">keel</tspan></text>
  </g>
</svg>
